<mxfile host="app.diagrams.net" modified="2023-08-31T13:27:43.831Z" agent="Mozilla/5.0 (Windows NT 10.0; Win64; x64) AppleWebKit/537.36 (KHTML, like Gecko) Chrome/116.0.0.0 Safari/537.36" etag="wJWtSHaLu5rNRZxfDlIx" version="21.7.1" type="github">
  <diagram name="PÃ¡gina-1" id="GYVZSeMmC9kogPjeQKCW">
    <mxGraphModel dx="1674" dy="3120" grid="1" gridSize="10" guides="1" tooltips="1" connect="1" arrows="1" fold="1" page="1" pageScale="1" pageWidth="827" pageHeight="1169" math="0" shadow="0">
      <root>
        <mxCell id="0" />
        <mxCell id="1" parent="0" />
        <mxCell id="uyFG5kZ8ZmmoZIBaO-pl-1" style="edgeStyle=orthogonalEdgeStyle;rounded=0;orthogonalLoop=1;jettySize=auto;html=1;entryX=0;entryY=0.5;entryDx=0;entryDy=0;" edge="1" parent="1" source="uyFG5kZ8ZmmoZIBaO-pl-2" target="uyFG5kZ8ZmmoZIBaO-pl-6">
          <mxGeometry relative="1" as="geometry" />
        </mxCell>
        <mxCell id="uyFG5kZ8ZmmoZIBaO-pl-2" value="Orgao Orcamento" style="ellipse;whiteSpace=wrap;html=1;" vertex="1" parent="1">
          <mxGeometry x="150" y="-2300" width="120" height="80" as="geometry" />
        </mxCell>
        <mxCell id="uyFG5kZ8ZmmoZIBaO-pl-3" value="" style="edgeStyle=orthogonalEdgeStyle;rounded=0;orthogonalLoop=1;jettySize=auto;html=1;" edge="1" parent="1" source="uyFG5kZ8ZmmoZIBaO-pl-5" target="uyFG5kZ8ZmmoZIBaO-pl-6">
          <mxGeometry relative="1" as="geometry" />
        </mxCell>
        <mxCell id="uyFG5kZ8ZmmoZIBaO-pl-4" style="edgeStyle=orthogonalEdgeStyle;rounded=0;orthogonalLoop=1;jettySize=auto;html=1;entryX=1;entryY=0.5;entryDx=0;entryDy=0;" edge="1" parent="1" source="uyFG5kZ8ZmmoZIBaO-pl-5" target="uyFG5kZ8ZmmoZIBaO-pl-2">
          <mxGeometry relative="1" as="geometry" />
        </mxCell>
        <mxCell id="uyFG5kZ8ZmmoZIBaO-pl-5" value="Poder Orcamento" style="ellipse;whiteSpace=wrap;html=1;" vertex="1" parent="1">
          <mxGeometry x="390" y="-2300" width="120" height="80" as="geometry" />
        </mxCell>
        <mxCell id="uyFG5kZ8ZmmoZIBaO-pl-6" value="Unidade Orcamentaria" style="ellipse;whiteSpace=wrap;html=1;" vertex="1" parent="1">
          <mxGeometry x="390" y="-2130" width="120" height="80" as="geometry" />
        </mxCell>
        <mxCell id="uyFG5kZ8ZmmoZIBaO-pl-7" style="edgeStyle=orthogonalEdgeStyle;rounded=0;orthogonalLoop=1;jettySize=auto;html=1;" edge="1" parent="1" source="uyFG5kZ8ZmmoZIBaO-pl-8" target="uyFG5kZ8ZmmoZIBaO-pl-6">
          <mxGeometry relative="1" as="geometry" />
        </mxCell>
        <mxCell id="uyFG5kZ8ZmmoZIBaO-pl-8" value="Classificacao Unidade Orcamentaria" style="ellipse;whiteSpace=wrap;html=1;" vertex="1" parent="1">
          <mxGeometry x="680" y="-2130" width="120" height="80" as="geometry" />
        </mxCell>
        <mxCell id="uyFG5kZ8ZmmoZIBaO-pl-9" style="edgeStyle=orthogonalEdgeStyle;rounded=0;orthogonalLoop=1;jettySize=auto;html=1;entryX=0;entryY=1;entryDx=0;entryDy=0;" edge="1" parent="1" source="uyFG5kZ8ZmmoZIBaO-pl-10" target="uyFG5kZ8ZmmoZIBaO-pl-6">
          <mxGeometry relative="1" as="geometry" />
        </mxCell>
        <mxCell id="uyFG5kZ8ZmmoZIBaO-pl-10" value="Tipo Administracao" style="ellipse;whiteSpace=wrap;html=1;" vertex="1" parent="1">
          <mxGeometry x="40" y="-2160" width="120" height="80" as="geometry" />
        </mxCell>
        <mxCell id="uyFG5kZ8ZmmoZIBaO-pl-11" style="edgeStyle=orthogonalEdgeStyle;rounded=0;orthogonalLoop=1;jettySize=auto;html=1;entryX=0.5;entryY=1;entryDx=0;entryDy=0;" edge="1" parent="1" source="uyFG5kZ8ZmmoZIBaO-pl-12" target="uyFG5kZ8ZmmoZIBaO-pl-6">
          <mxGeometry relative="1" as="geometry" />
        </mxCell>
        <mxCell id="uyFG5kZ8ZmmoZIBaO-pl-12" value="Unidade SIRH" style="ellipse;whiteSpace=wrap;html=1;" vertex="1" parent="1">
          <mxGeometry x="354" y="-1940" width="120" height="80" as="geometry" />
        </mxCell>
        <mxCell id="uyFG5kZ8ZmmoZIBaO-pl-13" style="edgeStyle=orthogonalEdgeStyle;rounded=0;orthogonalLoop=1;jettySize=auto;html=1;entryX=0.917;entryY=0.875;entryDx=0;entryDy=0;entryPerimeter=0;" edge="1" parent="1" source="uyFG5kZ8ZmmoZIBaO-pl-14" target="uyFG5kZ8ZmmoZIBaO-pl-6">
          <mxGeometry relative="1" as="geometry" />
        </mxCell>
        <mxCell id="uyFG5kZ8ZmmoZIBaO-pl-14" value="Credor Despesa" style="ellipse;whiteSpace=wrap;html=1;" vertex="1" parent="1">
          <mxGeometry x="583" y="-2000" width="120" height="80" as="geometry" />
        </mxCell>
      </root>
    </mxGraphModel>
  </diagram>
</mxfile>
